<?xml version="1.0" encoding="utf-8"?>
<svg fill="#e2e2e2" viewBox="0 0 509.47 509.47" xmlns="http://www.w3.org/2000/svg">
<path d="M 287.33,39.325003 106.77,174.925 a 10.72,10.72 0 0 0 -2.71,3.25 H 0 v 153.2 h 104.06 a 10.58,10.58 0 0 0 2.71,3.25 l 180.56,135.52 a 10.83,10.83 0 0 0 17.34,-8.66 V 47.985003 a 10.83,10.83 0 0 0 -17.34,-8.66 z M 487.07,344.335 l 22.4,-22.41 -67.2,-67.2 67.2,-67.2 -22.4,-22.4 -67.2,67.2 -67.2,-67.2 -22.4,22.4 67.2,67.2 -67.2,67.2 22.4,22.4 67.2,-67.2 67.2,67.2 z"/>
</svg>
