<?xml version="1.0" encoding="utf-8"?>
<svg viewBox="0 0 512 512" xmlns="http://www.w3.org/2000/svg">
  <style>.st6{fill:#e2e2e2}</style>
  <g id="ICONS" transform="translate(-256,-256)">
    <path class="st6" d="M 545.8,294.7 363.7,431.5 c -1.2,0.9 -2,2.1 -2.7,3.3 H 256 v 154.5 h 105 c 0.7,1.2 1.6,2.4 2.7,3.3 l 182.1,136.7 c 7.2,5.4 17.5,0.3 17.5,-8.7 V 303.5 c 0,-9 -10.3,-14.2 -17.5,-8.8 z m 122.2,397 c -8.8,0 -17.4,-4.5 -22.2,-12.7 -7.1,-12.2 -3,-27.9 9.2,-35 2.4,-1.4 61.7,-38.4 61.7,-132 0,-95 -61.1,-131.6 -61.7,-132 -12.2,-7.1 -16.3,-22.8 -9.2,-35 7.1,-12.2 22.8,-16.3 35,-9.2 3.7,2 87.2,52.2 87.2,176.2 0,124 -83.5,174.2 -87.1,176.2 -4.1,2.4 -8.5,3.5 -12.9,3.5 z"/>
    <path class="st6" d="m 613.2,621.2 c -8.8,0 -17.4,-4.5 -22.1,-12.7 -7.1,-12.2 -3,-27.9 9.2,-35 0.7,-0.4 24.6,-16 24.6,-55.1 0,-39.1 -23.9,-54.7 -25,-55.4 -11.8,-7.4 -15.7,-23.1 -8.4,-35 7.2,-12 22.5,-16 34.6,-9 2,1.2 50,29.9 50,99.4 0,69.5 -48,98.2 -50,99.4 -4.1,2.3 -8.5,3.4 -12.9,3.4 z"/>
  </g>
</svg>
